<svg width="153" height="119" viewBox="0 0 153 119" fill="none" xmlns="http://www.w3.org/2000/svg">
<path d="M0 11.6875V11.6875C11.1801 5.23266 25.4761 9.06325 31.9309 20.2434L59.371 67.771V67.771C48.1909 74.2259 33.8949 70.3953 27.4401 59.2152L0 11.6875Z" fill="white"/>
<path d="M54.251 27.6875V27.6875C65.4311 21.2327 79.727 25.0633 86.1819 36.2434L126.994 106.933V106.933C115.814 113.387 101.518 109.557 95.0635 98.3768L54.251 27.6875Z" fill="white"/>
<path d="M113 56.6875V56.6875C124.18 50.2327 138.476 54.0633 144.931 65.2434L152.087 77.6387V77.6387C140.907 84.0935 126.611 80.2629 120.156 69.0828L113 56.6875Z" fill="white"/>
</svg>
