<svg width="153" height="119" viewBox="0 0 153 119" fill="none" xmlns="http://www.w3.org/2000/svg">
<path d="M0.507629 11.6875V11.6875C11.6877 5.23268 25.9837 9.06327 32.4385 20.2434L59.8786 67.771V67.771C48.6985 74.2259 34.4026 70.3953 27.9477 59.2152L0.507629 11.6875Z" fill="#0A1828"/>
<path d="M54.7586 27.6875V27.6875C65.9387 21.2327 80.2347 25.0633 86.6895 36.2434L127.502 106.933V106.933C116.322 113.388 102.026 109.557 95.5711 98.3768L54.7586 27.6875Z" fill="#0A1828"/>
<path d="M113.508 56.6875V56.6875C124.688 50.2327 138.984 54.0633 145.439 65.2434L152.595 77.6387V77.6387C141.415 84.0935 127.119 80.263 120.664 69.0828L113.508 56.6875Z" fill="#0A1828"/>
</svg>
